<?xml version="1.0" encoding="utf-8"?>
<!-- Generator: Adobe Illustrator 27.5.0, SVG Export Plug-In . SVG Version: 6.00 Build 0)  -->
<svg version="1.1" xmlns="http://www.w3.org/2000/svg" xmlns:xlink="http://www.w3.org/1999/xlink" x="0px" y="0px"
	 viewBox="0 0 500 500" style="enable-background:new 0 0 500 500;" xml:space="preserve">
<g id="BACKGROUND">
</g>
<g id="OBJECTS">
	<path style="fill:#1D1D1B;" d="M45.429,319.874c-3.478,3.843-6.602,8.063-9.75,12.215c-0.002-0.09-0.004-0.175-0.007-0.271
		c-0.147-4.597-0.375-9.194-0.562-13.79c-0.375-9.193-0.744-18.387-1.128-27.579c-0.767-18.373-0.986-36.884-3.105-55.158
		c-0.073-0.626-0.98-0.661-1.002,0c-0.567,16.731,0.555,33.513,1.225,50.234c0.329,8.208,0.669,16.416,1.008,24.624
		c0.163,3.94,0.325,7.88,0.488,11.82c0.109,2.646,1.097,7.51,0.224,10.583c-3.404-3.873-6.841-7.706-10.475-11.374
		c-0.587-0.592-1.722,0.212-1.193,0.92c3.293,4.408,6.797,8.63,10.345,12.827c-0.242,0.806,0.516,1.788,1.342,1.587
		c0.153,0.18,0.305,0.361,0.458,0.542c0.42,0.495,1.438,0.525,1.85,0c4.077-5.188,8.485-10.25,12.172-15.723
		C48.078,320.203,46.345,318.863,45.429,319.874z"/>
	<path style="fill:#1D1D1B;" d="M123.375,223.144c-8.588-2.127-17.227-4.43-25.97-5.826c-1.067-0.17-1.523,1.304-0.454,1.648
		c5.659,1.821,11.45,3.282,17.245,4.691C92.945,227.895,73.907,241.571,63.891,261c-11.398,22.108-10.157,50.049,3.859,70.666
		c0.408,0.6,1.349,0.071,0.983-0.575c-11.819-20.877-13.815-47.188-2.586-68.772c10.409-20.007,30.773-33.984,53.097-36.803
		c0.362-0.046,0.643-0.209,0.852-0.428c0.146,0.036,0.292,0.072,0.439,0.108c-4.944,5.54-9.397,11.429-13.377,17.716
		c-0.921,1.455,1.387,2.795,2.304,1.347c4.267-6.74,9.091-13.023,14.502-18.884C124.623,224.66,124.386,223.394,123.375,223.144z"/>
	<path style="fill:#1D1D1B;" d="M348.657,348.44c-9.058-1.546-18.207-2.434-27.403-2.377c-1.037,0.007-1.01,1.512,0,1.593
		c7.773,0.617,15.483,1.497,23.167,2.758c-56.34,30.907-125.302,30.727-182.769,2.905c-0.592-0.287-1.11,0.566-0.522,0.892
		c56.106,31.076,127.889,29.321,183.854-1.064c-3.192,6.194-6.191,13.018-7.216,19.668c-0.223,1.444,1.608,1.932,2.166,0.597
		c3.234-7.723,5.548-15.563,9.514-23.024C349.814,349.701,349.541,348.591,348.657,348.44z"/>
	<path style="fill:#1D1D1B;" d="M186.055,419.487c-0.063,5.002-0.084,10.004-0.106,15.007c-9.874-13.153-14.543-33.476-32.178-38.56
		c-16.776-4.837-33.872,6.622-42.796,20.087c-5.851,8.828-9.482,18.895-12.994,28.817c-0.924,2.612-1.835,5.229-2.784,7.833
		c-0.378,1.037-0.749,2.08-1.15,3.109c-1.164,2.989-1.314,3.757-4.357,5.212c-4.937,2.36-9.799-0.078-14.068-3.02
		c-10.241-7.057-20.099-23.02-34.577-19.463c-9.316,2.289-14.499,11.618-15.866,20.466c-0.47,3.037-2.797,21.966,4.833,19.555
		c0.648-0.205,0.383-1.165-0.28-1.017c-4.631,1.034-3.269-12.75-3.08-14.84c0.54-5.963,2.22-11.967,6.294-16.514
		c5.93-6.618,14.327-7.115,21.568-2.574c10.169,6.378,17.371,19.023,29.985,21.073c7.345,1.194,10.053-2.638,12.412-8.947
		c3.347-8.951,6.158-18.118,10.107-26.834c7.129-15.736,20.715-31.897,39.698-31.317c20.103,0.614,25.851,22.061,35.436,36.218
		c-6.106-2.634-12.432-4.697-18.976-6.032c-0.895-0.183-1.256,1.09-0.379,1.373c8.19,2.642,16.107,5.746,23.793,9.638
		c0.888,0.45,1.986-0.097,1.995-1.145c0.057-6.042,0.127-12.085,0.136-18.128C188.726,417.769,186.077,417.768,186.055,419.487z"/>
	<path style="fill:#1D1D1B;" d="M396.727,394.927c-18.252-8.703-40.617-7.136-57.956,3.106
		c-16.572,9.789-29.945,29.772-22.102,49.381c6.829,17.075,27.506,22.865,44.211,19.58c9.864-1.94,19.201-7.086,25.16-15.311
		c4.933-6.809,8.885-18.175,4.36-26.147c-4.37-7.7-15.473-10.594-23.689-10.16c-7.639,0.404-15.073,3.374-20.528,8.652
		c1.071-3.157,2.084-6.335,3.007-9.533c0.233-0.809-1.037-1.397-1.398-0.589c-2.096,4.702-4.019,9.497-5.801,14.327
		c-0.287,0.777,0.457,1.658,1.242,1.631c6.067-0.211,12.234-0.141,18.274-0.756c1.545-0.157,1.613-2.416,0-2.457
		c-5.125-0.132-10.304,0.234-15.445,0.502c10.181-10.011,28.986-13.805,40.006-2.79c7.252,7.249,2.245,20.239-3.202,27.049
		c-5.977,7.472-14.993,11.789-24.319,13.304c-15.51,2.519-34.686-3.622-39.998-19.851c-6.022-18.402,6.884-36.114,22.206-44.98
		c16.922-9.791,37.339-10.439,55.467-3.763C396.913,396.376,397.396,395.246,396.727,394.927z"/>
	<path style="fill:#1D1D1B;" d="M104.754,392.198c-6.302-2.538-12.676-4.817-19.231-6.617c-0.927-0.255-1.254,1.082-0.39,1.414
		c4.718,1.812,9.425,3.648,14.083,5.608c-13.055,1.689-26.118,3.311-39.193,4.835c-7.415,0.864-14.846,1.825-22.314,2.081
		c-3.243,0.111-6.499,0.101-9.737-0.139c-1.826-0.128-3.643-0.332-5.453-0.613c-0.551-1.062-1.102-2.124-1.653-3.186
		c0.131-1.438,2.902-4.001,3.831-5.036c4.396-4.893,9.777-8.997,14.733-13.301c5.421-4.708,10.83-9.431,16.241-14.15
		c11.301-9.856,22.754-19.594,33.695-29.85c0.406-0.38-0.182-0.924-0.596-0.597c-13.843,10.934-27.14,22.595-40.583,34.014
		c-6.4,5.437-12.833,10.84-19.179,16.339c-3.615,3.132-10.952,8.58-11.443,13.908c-0.421,4.56,5.287,4.648,8.469,4.965
		c8.438,0.841,16.932,0.127,25.332-0.783c16.115-1.746,32.205-3.778,48.28-5.867c-4.83,3.518-9.47,7.355-13.706,11.534
		c-1.207,1.191,0.604,2.968,1.85,1.85c5.557-4.99,11.189-9.697,17.274-14.044C106.019,393.88,105.811,392.623,104.754,392.198z"/>
	<path style="fill:#1D1D1B;" d="M342.15,71.021c-4.419-2.747-9.205-6.744-14.228-8.186c-0.674-0.194-1.078,0.637-0.652,1.119
		c2.355,2.665,5.748,4.728,9.055,6.663l-14.713,0.015c-5.718,0.006-11.882-0.65-17.548,0.151
		c-7.607,1.075-9.775,10.784-13.277,16.431c-2.669,4.304-5.674,8.405-8.983,12.239c-1.775,2.057-3.595,4.68-6.193,5.672
		c-2.273,0.868-3.188,0.974-4.967-1.147c-0.912-1.087-1.365-2.492-1.701-3.853c-2.172-8.809,2.707-19.988,5.963-28.023
		c3.534-8.721,7.712-17.211,10.462-26.232c1.771-5.809,4.746-15.007,1.621-20.87c-3.732-7.001-11.777-0.118-15.876,2.779
		c-7.791,5.507-14.972,11.866-21.356,18.957c-12.376,13.746-20.906,30.178-30.61,45.785c-4.945,7.953-10.242,15.738-16.604,22.638
		c-2.402,2.606-10.707,12.67-13.035,4.836c-1.342-4.514,0.451-11.614,1.308-16.041c3.601-18.608,12.626-35.541,18.174-53.555
		c1.363-4.425,2.52-8.915,3.327-13.477c0.615-3.481,1.612-7.672,0.6-11.147c-2.07-7.109-9.558-4.221-14.031-1.445
		c-33.874,21.014-51.342,59.695-66.452,94.91c-0.255,0.594,0.607,1.12,0.883,0.516c14.648-32.015,30.195-66.621,59.071-88.43
		c3.188-2.408,6.572-4.946,10.168-6.717c4.618-2.275,8.858,1.671,8.454,6.371c-0.271,3.137-0.909,6.29-1.594,9.361
		c-1.969,8.831-5.103,17.355-8.362,25.778c-6.418,16.587-14.115,33.847-13.89,51.996c0.051,4.108,1.945,10.139,7.197,7.54
		c6.268-3.102,11.82-10.935,16.005-16.342c11.074-14.304,19.067-30.633,29.186-45.576c5.563-8.214,11.858-15.86,19.1-22.653
		c3.676-3.448,7.556-6.684,11.624-9.66c1.845-1.35,3.727-2.652,5.643-3.899c0.627-0.408,2.069-1.595,2.899-1.834
		c5.908-1.703,6.689,1.084,6.792,4.615c0.264,9.115-3.732,18.679-7.17,26.941c-3.51,8.435-7.503,16.712-10.057,25.51
		c-1.981,6.825-4.521,16.354,0.063,22.737c4.274,5.952,9.772,1.875,13.512-2.234c7.098-7.799,11.838-16.475,17.007-25.55
		c3.608-6.334,13.355-4.422,19.651-4.428c5.936-0.006,11.872-0.012,17.809-0.018c-5.941,3.229-11.471,7.118-16.485,11.702
		c-1.273,1.164,0.61,3.025,1.887,1.887c6.171-5.5,12.859-10,20.325-13.546C343.088,72.861,342.932,71.507,342.15,71.021z"/>
	<path style="fill:#1D1D1B;" d="M463.597,77.575c-2.049-2.989-4.2-5.914-6.34-8.839c-0.885-1.209-2.157-3.815-3.92-4.074
		c-1.971-0.289-3.386,1.865-4.507,3.064c-2.737,2.928-5.496,5.84-8.138,8.855c-0.693,0.791,0.392,1.904,1.163,1.163
		c1.735-1.664,3.421-3.375,5.105-5.091c1.006-1.025,3.741-4.893,5.043-5.153c0.016-0.003,0.034-0.002,0.05-0.004
		c-0.564,7.476-2.045,14.651-7.875,19.919c-5.666,5.119-13.601,7.153-21.078,5.959c-15.792-2.522-24.954-15.95-29.993-29.93
		c-0.229-0.636-1.159-0.389-1.017,0.28c3.449,16.307,16.402,31.451,33.915,32.372c7.221,0.38,14.509-2.111,19.9-6.953
		c5.981-5.372,7.902-12.815,8.528-20.495c2.79,2.57,6.059,8.601,7.176,10.086C462.48,79.89,464.448,78.817,463.597,77.575z"/>
	<path style="fill:#1D1D1B;" d="M458.744,41.555c-5.188-11.248-17.99-17.224-30.031-16.438
		c-12.293,0.802-23.291,8.049-31.145,17.296c-0.081-4.269-0.786-8.432-2.33-12.5c-0.312-0.821-1.528-0.515-1.332,0.367
		c1.107,4.986,1.653,9.905,1.368,14.993c-0.03,0.039-0.061,0.077-0.091,0.117c-0.186,0.25-0.106,0.522,0.075,0.713
		c0.093,0.655,0.814,0.979,1.42,0.877c7.12-1.194,14.236-2.411,21.351-3.637c1.463-0.252,0.841-2.475-0.614-2.227
		c-6.582,1.122-13.161,2.255-19.738,3.404c8.104-8.656,18.143-16.067,30.344-17.087c11.736-0.981,23.384,4.643,28.684,15.316
		C457.386,44.12,459.373,42.919,458.744,41.555z"/>
	<path style="fill:#1D1D1B;" d="M338.968,33.809c5.171-1.272,10.161-3.043,15.013-5.334c1.376-0.649,0.177-2.679-1.192-2.04
		c-5.976,2.789-12.159,4.775-18.633,6.011c-0.905,0.173-1.101,1.381-0.522,1.978c4.719,4.868,8.889,10.088,13.022,15.454
		c0.491,0.637,1.52,0.101,1.111-0.649c-2.537-4.658-5.691-8.941-9.185-12.923c16.956,2.167,38.784,13.568,37.069,32.889
		c-0.9,10.145-4.418,20.067-12.963,26.19c-6.366,4.562-13.978,6.762-21.479,8.739c-0.28-0.148-0.56-0.298-0.84-0.446
		c4.568-4.341,8.982-8.833,13.263-13.46c1.031-1.115-0.633-2.788-1.671-1.671c-4.656,5.014-9.479,9.853-14.436,14.569
		c-0.533,0.507-0.431,1.514,0.24,1.863c0.217,0.113,0.435,0.224,0.652,0.336c0.009,0.361,0.305,0.731,0.767,0.626
		c0.103-0.023,0.207-0.048,0.31-0.071c5.498,2.841,11.025,5.63,16.655,8.203c0.83,0.38,1.545-0.764,0.729-1.248
		c-4.566-2.71-9.221-5.265-13.904-7.766c8.226-1.976,16.668-4.569,23.202-10.017c8.005-6.675,11.341-17.352,11.895-27.478
		C379.138,48.021,356.325,35.988,338.968,33.809z"/>
	<path style="fill:#1D1D1B;" d="M311.922,164.525c-5.123-2.015-10.014-4.388-14.921-6.869c-0.905-0.457-1.671,0.827-0.798,1.366
		c3.755,2.317,7.679,4.377,11.655,6.306c-11.073,0.843-23.791,0.955-31.516-8.198c-0.463-0.548-1.523-0.407-1.833,0.236
		c-1.96,4.065-3.92,8.13-5.88,12.195c-0.828,1.718-1.62,4.734-2.94,6.098c-3.163,3.268-4.181-0.362-5.128-3.038
		c-2.103-5.944-4.114-14.207-8.547-18.895c-3.164-3.345-6.972-2.08-9.639,1.203c-4.489,5.523-7.579,12.914-10.907,19.383
		c-3.452-7.285-6.872-14.588-10.382-21.845c-1.727-3.57-4.684-9.64-9.704-8.428c-5.063,1.222-7.143,10.13-8.593,14.225
		c-2.796,7.897-4.442,16.056-5.12,24.395c-0.069,0.855,1.223,0.826,1.318,0c0.699-6.028,1.845-11.976,3.577-17.795
		c0.874-2.936,1.885-5.833,3.035-8.672c0.657-1.622,1.363-3.232,2.116-4.812c1.321-2.772,1.008-2.808,4.67-3.279
		c3.529-0.453,3.409-0.553,5.044,2.044c0.683,1.085,1.191,2.289,1.74,3.441c1.216,2.554,2.411,5.119,3.616,7.679
		c2.545,5.404,5.09,10.808,7.635,16.212c0.372,0.789,1.601,0.716,1.994,0c2.169-3.957,4.339-7.913,6.501-11.873
		c1.604-2.938,3.255-8.251,6.08-10.134c7.838-5.223,12.481,17.003,14.342,20.874c1.352,2.814,3.901,5.426,6.835,3
		c2.084-1.723,3.329-6.227,4.475-8.604c1.724-3.576,3.448-7.153,5.172-10.729c7.975,8.173,20.182,8.465,31.104,7.711
		c-2.866,2.401-5.48,5.171-7.288,8.369c-0.628,1.11,0.953,2.459,1.83,1.412c3.361-4.011,6.411-7.671,10.757-10.694
		C313.151,166.164,312.94,164.926,311.922,164.525z"/>
	<path style="fill:#1D1D1B;" d="M177.443,304.741c-6.026-3.301-12.06-6.603-18.152-9.781c-0.818-0.427-1.511,0.749-0.724,1.238
		c5.019,3.126,10.098,6.164,15.18,9.191c-0.07-0.012-0.126-0.041-0.205-0.041c-11.024,0.047-22.035,0.684-32.977,2.051
		c-7.124,0.89-16.984,2.101-21.497,8.522c-2.544,3.621-2.901,8.91-3.61,13.135c-0.797,4.746-1.396,9.528-1.808,14.322
		c-0.938,10.939-0.952,22.102,0.471,33c0.104,0.794,1.332,0.849,1.287,0c-0.965-18.16-1.115-37.307,3.727-55.012
		c2.931-10.718,17.095-11.339,26.26-12.28c9.085-0.933,18.199-1.364,27.328-1.397c-4.186,3.634-8.242,7.478-11.932,11.579
		c-1.071,1.191,0.608,2.9,1.768,1.767c4.988-4.873,9.926-9.723,15.131-14.37C178.273,306.147,178.108,305.105,177.443,304.741z"/>
	<path style="fill:#1D1D1B;" d="M463.165,373.599c5.208-3.438,9.955-7.98,14.684-12.051c0.781-0.672,0.261-1.815-0.558-2.115
		c-0.003-0.001-0.006-0.002-0.009-0.003c-0.178-0.277-0.474-0.475-0.92-0.452c-0.07,0.004-0.139,0.009-0.208,0.013
		c-6.02-2.271-11.841-4.975-17.653-7.729c-1.034-0.49-1.933,0.972-0.91,1.557c4.28,2.452,8.716,4.576,13.218,6.562
		c-7.379,0.661-14.699,1.857-21.901,3.633c-6.397,1.577-14.654,3.153-18.72,8.939c-9.186,13.072,12.213,20.126,21.096,22.79
		c4.004,1.201,8.063,2.342,11.886,4.056c1.592,0.714,3.147,1.518,4.618,2.455c4.888,3.113,5.143,8.485,0.121,11.716
		c-7.117,4.58-16.446,2.249-24.354,3.632c-5.734,1.003-11.095,4.053-12.87,9.929c-1.539,5.094,0.76,9.429,5.48,11.596
		c8.181,3.756,18.346,4.186,24.519,11.613c5.704,6.863-0.195,14.067-6.658,17.169c-6.308,3.028-13.456,3.468-20.242,2.165
		c-0.547-0.105-0.787,0.718-0.232,0.844c7.281,1.659,15.038,1.211,21.813-2.138c4.832-2.389,9.922-7.177,9.467-13.051
		c-0.514-6.65-7.676-10.933-13.116-13.326c-6.679-2.938-23.281-4.657-18.492-15.33c7.083-15.788,33.578,0.073,40.648-16.297
		c5.321-12.32-20.608-16.807-27.738-19.261c-4.885-1.682-11.695-4.141-14.296-8.948c-3.95-7.302,3.838-12.005,9.836-13.984
		c10.376-3.423,21.31-5.214,32.191-6.089c-4.152,3.256-8.491,6.546-12.099,10.291C460.884,372.7,462.037,374.344,463.165,373.599z"
		/>
	<path style="fill:#1D1D1B;" d="M424.176,298.542c-3.907-4.34-7.337-8.918-10.57-13.774c-0.42-0.631-1.297-0.805-1.864-0.24
		c-4.523,4.506-9.071,9.005-13.389,13.71c-0.71,0.774,0.368,1.843,1.148,1.148c4.393-3.909,8.614-8.016,12.827-12.118
		c0.237,0.394,0.477,0.786,0.722,1.176c-0.262,0.13-0.487,0.352-0.612,0.692c-3.803,10.332-1.916,21.306-4.325,31.867
		c-2.821,12.365-13.197,21.679-26.089,14.948c-10.337-5.396-15.575-17.891-18.085-28.651c-2.611-11.194-2.672-22.73-3.118-34.155
		c-0.025-0.65-0.991-0.653-1.012,0c-0.446,13.432-0.317,27.348,3.696,40.302c3.258,10.517,9.541,22.042,20.539,25.921
		c10.228,3.607,19.802-1.337,24.167-10.921c5.44-11.946,2.172-25.528,6.299-37.782c2.35,3.435,5,6.673,7.861,9.681
		C423.51,301.544,425.27,299.757,424.176,298.542z"/>
	<path style="fill:#1D1D1B;" d="M321.732,254.197c-6.653-15.018-20.96-19.966-36.138-19.144c-1.672-2.798-4.021-5.377-7.103-7.596
		c-15.209-10.949-35.828-13.855-53.909-10.354c-0.661,0.128-0.379,1.125,0.277,1.007c14.999-2.698,30.62-0.793,44.351,5.923
		c5.383,2.633,11.101,6.095,14.57,11.147c-14.584,1.219-29.719,7.565-39.459,15.276c-4.976,3.94-11.38,9.534-12.05,16.295
		c-0.566,5.717,3.216,10.854,8.037,13.555c12.981,7.274,30.821-4.144,39.731-13.409c8.097-8.419,10.982-19.746,6.896-29.213
		c16.042-0.418,30.882,5.784,34.847,24.229c6.042,28.104-20.617,53.526-44.248,63.265c-28.142,11.597-60.073,5.886-83.437-13.012
		c4.106,0.388,8.23,0.725,12.292,0.645c1.19-0.024,1.563-1.952,0.293-2.165c-6.574-1.103-13.46-1.157-20.107-1.625
		c-0.853-0.06-1.327,0.83-1.185,1.556c1.329,6.829,4.415,13.144,9.258,18.179c0.593,0.617,1.758-0.223,1.217-0.939
		c-3.738-4.951-6.351-10.219-7.735-16.206c0.765,0.066,1.531,0.134,2.299,0.207c23.969,21.914,59.358,27.845,89.195,15.03
		C305.631,315.676,335.238,284.684,321.732,254.197z M282.344,260.806c-3.739,5.49-9.114,9.656-14.739,13.069
		c-6.845,4.154-15.784,8.464-23.905,5.534c-7.991-2.883-11.657-11.212-6.568-18.483c4.06-5.801,10.236-10.35,16.328-13.808
		c8.818-5.005,20.526-8.767,31.807-9.377c0.234,0.487,0.452,0.984,0.643,1.498C288.591,246.446,286.555,254.622,282.344,260.806z"/>
	<path style="fill:#1D1D1B;" d="M98.989,199.609c-4.454-1.844-8.465-4.302-12.263-7.258c-1.158-0.902-2.817,0.677-1.648,1.648
		c3.409,2.831,7.142,5.074,11.15,6.877c-0.576,0.36-1.146,0.73-1.714,1.104c-13.885,0.948-27.672-0.651-40.373-6.712
		c-3.731-1.781-8.038-4.399-11.928-7.615c1.386-1.362,2.714-2.777,3.96-4.254c6.163-7.3,16.151-21.322,5.949-29.414
		c-8.886-7.048-20.599,0.065-22.785,10.037c-2.121,9.673,2.948,18.036,9.896,24.267c-7.501,6.898-16.543,11.738-26.452,14.824
		c-0.365,0.114-0.214,0.647,0.157,0.57c10.21-2.122,19.759-7.312,27.5-14.353c2.369,1.985,4.909,3.733,7.432,5.209
		c12.839,7.513,28.227,10.904,43.096,9.915c-2.908,2.148-5.661,4.502-8.138,7.133c-0.556,0.591,0.265,1.362,0.873,0.873
		c3.748-3.02,7.516-5.867,11.545-8.404c0.107-0.013,0.216-0.021,0.323-0.035c0.467-0.06,0.77-0.364,0.911-0.72
		c0.913-0.553,1.835-1.095,2.779-1.614C100.205,201.167,99.829,199.957,98.989,199.609z M33.463,159.795
		c4.46-7.201,16.236-9.524,20.316-0.471c3.204,7.108-3.638,16.348-7.91,21.798c-1.529,1.951-3.16,3.775-4.878,5.487
		C32.94,179.512,27.253,169.821,33.463,159.795z"/>
	<path style="fill:#1D1D1B;" d="M282.677,435.37c-5.71-2.085-11.51-4.988-17.44-6.323c-0.461-0.104-0.744,0.517-0.325,0.771
		c4.08,2.477,8.775,4.202,13.293,6.019c-9.095-0.214-18.193-0.354-27.291-0.461c0.454-9.054,0.43-18.118,0.044-27.175
		c0.06,0.026,0.117,0.042,0.18,0.074c0.858,0.449,1.634,2.012,2.278,2.806c1.517,1.868,2.987,3.78,4.623,5.546
		c0.718,0.775,2.13-0.264,1.491-1.15c-2.011-2.789-4.266-5.461-6.518-8.059c-0.958-1.105-1.974-2.747-3.702-2.321
		c-1.87,0.462-3.178,3.705-4.079,5.075c-2.158,3.28-4.374,6.533-6.43,9.878c-0.439,0.714,0.614,1.267,1.093,0.639
		c2.731-3.582,5.026-8.237,8.218-11.39c0.156-0.154,0.305-0.294,0.452-0.426c0.406,8.823,0.469,17.652,0.187,26.477
		c-1.937-0.021-3.875-0.053-5.812-0.071c-5.937-0.054-11.875-0.104-17.813-0.104c-1.703,0-4.651-0.481-7.254-0.417
		c6.479-2.84,13.061-5.6,19.318-8.85c1.046-0.543,0.315-2.378-0.817-1.937c-7.63,2.969-15.053,6.685-22.494,10.098
		c-0.725,0.333-0.675,1.294-0.189,1.791c-0.127,0.104-0.252,0.209-0.358,0.331c-0.228,0.264-0.208,0.566,0,0.834
		c0.388,0.499,0.468,0.49,1.108,0.482c0.185-0.002,0.367-0.131,0.413-0.314c0.027-0.107,0.054-0.215,0.081-0.322
		c0.018-0.072,0.008-0.138-0.01-0.198c5.112,3.213,10.313,6.375,15.628,9.224c0.564,0.302,0.979-0.471,0.49-0.838
		c-3.884-2.914-7.919-5.68-11.988-8.362c1.027,0.078,1.879,0.148,2.115,0.154c2.969,0.071,5.938,0.15,8.907,0.219
		c5.608,0.129,11.215,0.259,16.823,0.398c0.592,0.015,1.184,0.032,1.776,0.047c-0.044,1.134-0.067,2.268-0.123,3.402
		c-0.257,5.262-0.667,10.516-1.162,15.761c-0.245,2.595-0.535,5.056-0.297,7.49c-2.653-3.788-5.38-7.875-8.741-10.836
		c-0.319-0.282-0.722,0.067-0.563,0.434c2.128,4.918,6.085,9.484,9.197,13.835c0.272,0.38,0.67,0.539,1.049,0.484
		c0.031,0.076,0.05,0.152,0.082,0.228c0.184,0.434,0.852,0.118,0.742-0.313c-0.032-0.127-0.056-0.254-0.084-0.381
		c0.005-0.007,0.011-0.011,0.016-0.018c3.441-4.931,6.851-9.883,10.261-14.834c0.802-1.165-1.099-2.266-1.894-1.107
		c-2.941,4.286-5.877,8.577-8.799,12.877c-0.197-3.924,0.706-7.894,1.149-11.791c0.559-4.915,0.975-9.851,1.272-14.789
		c0.008-0.128,0.013-0.255,0.02-0.383c8.48,0.219,16.96,0.46,25.44,0.692c-3.287,1.819-6.436,3.889-9.453,6.13
		c-1.165,0.865-0.025,2.845,1.15,1.967c4.722-3.53,9.717-6.407,15.002-9.004C283.847,436.908,283.48,435.663,282.677,435.37z"/>
	<path style="fill:#1D1D1B;" d="M486.566,312.394c-1.41-3.302-4.466-5.559-7.134-7.785c-1.732-1.445-3.468-2.885-5.201-4.329
		c-1.01-0.842-2.08-1.639-3.014-2.566c-1.904-1.89-6.385-6.938-0.438-9.281c0.432-0.17,0.262-0.866-0.196-0.712
		c-4.305,1.446-4.284,6.042-1.888,9.332c4.683,6.431,17.235,10.65,16.948,19.778c-0.378,12.022-15.743,14.231-24.924,13.726
		c-9.145-0.503-17.623-3.758-25.097-8.883c3.358,0.112,6.715,0.227,10.073,0.329c1.325,0.041,1.321-2.009,0-2.057
		c-4.79-0.172-9.58-0.33-14.37-0.484c-0.807-0.026-1.261,0.893-0.894,1.559c2.206,4.006,4.789,7.862,8.01,11.125
		c0.45,0.456,1.264-0.139,0.903-0.697c-1.835-2.831-3.691-5.623-5.419-8.508c12.254,9.033,32.497,14.231,46.204,5.696
		C485.425,325.343,489.201,318.563,486.566,312.394z"/>
	<path style="fill:#1D1D1B;" d="M163.778,159.931c-4.497,0.933-9.457,1.498-13.731,3.2c-0.522,0.208-0.505,1.059,0.142,1.046
		c3.731-0.072,7.589-0.999,11.32-1.828c-6.969,10.589-20.094,18.055-32.898,14.299c-6.783-1.99-12.21-6.862-16.9-11.95
		c-4.996-5.421-11.539-11.855-11.2-19.72c0.017-0.395-0.556-0.373-0.601,0c-0.934,7.669,5.211,14.075,9.823,19.503
		c4.995,5.88,10.881,11.51,18.409,13.87c13.111,4.111,26.759-3.167,34.397-13.784c-0.406,3.448-0.554,6.919-0.347,10.398
		c0.076,1.278,2.053,1.297,2.004,0c-0.177-4.671-0.007-9.248,0.749-13.869C165.063,160.369,164.532,159.774,163.778,159.931z"/>
	<path style="fill:#1D1D1B;" d="M175.599,222.281c-3.632-3.329-7.82-5.949-10.941-9.819c-2.245-2.783-4.196-6.449-3.976-10.168
		c0.289-4.893,4.1-8.841,9.024-8.632c0.458,0.02,0.432-0.643,0-0.696c-8.983-1.093-12.136,9.006-9.135,15.96
		c2.08,4.82,6.138,8.236,10.079,11.509c2.532,2.103,7.11,5.068,7.607,8.627c0.753,5.387-3.781,9.174-7.501,12.113
		c-7.672,6.06-18.151,11.665-19.213,22.533c-0.884,9.046,5.751,16.952,12.306,22.737c-3.183-0.509-6.375-0.968-9.594-1.152
		c-0.527-0.03-0.608,0.759-0.122,0.901c4.55,1.325,9.242,2.075,13.898,2.922c0.591,0.107,1.293-0.262,1.252-0.954
		c-0.238-4.047-0.202-8.262-0.92-12.255c-0.192-1.068-1.782-0.756-1.823,0.247c-0.143,3.486,0.318,7.085,0.642,10.591
		c-7.044-6.738-16.123-14.905-13.035-25.733c3.055-10.709,15.298-14.763,22.285-22.322
		C181.547,233.159,181.082,227.307,175.599,222.281z"/>
	<path style="fill:#1D1D1B;" d="M465.734,200.099c-5.575-6.288-14.739-6.28-21.869-3.008c-5.275,2.421-9.759,6.302-14.213,9.947
		c-5.531,4.526-11.057,9.058-16.586,13.587c-10.649,8.724-21.018,18.638-32.508,26.232c-5.183,3.426-11.406,5.846-17.562,3.634
		c-9.13-3.28-7.879-12.945-3.215-19.663c12.108-17.44,33.759-26.719,51.043-37.93c8.012-5.197,15.799-10.96,22.176-18.123
		c6.266-7.039,12.807-16.597,11.365-26.531c-2.758-18.996-27.192-15.913-39.46-9.532c-16.175,8.413-27.146,23.888-38.489,37.611
		c-6.084,7.361-12.427,14.635-19.914,20.617c-3.783,3.022-7.919,5.847-12.354,7.82c-8.162,3.63-20.672,2.472-19.508-9.345
		c1.395-14.15,14.577-24.825,25.97-31.434c6.332-3.673,12.997-6.71,19.53-9.997c3.262-1.642,6.507-3.331,9.647-5.197
		c2.173-1.291,5.166-2.762,6.587-5.014c4.533-7.183-6.236-10.068-11.353-9.391c-11.666,1.543-22.741,8.285-30.55,16.859
		c-0.383,0.42,0.217,1.029,0.626,0.627c8.011-7.885,20.478-16.109,32.235-15.964c1.103,0.014,2.284,0.173,3.349,0.453
		c2.937,0.774,2.888,0.973,3.128,4.172c0.286,3.808-0.537,3.622-3.531,5.48c-1.292,0.802-2.629,1.537-3.961,2.268
		c-5.614,3.082-11.443,5.742-17.188,8.565c-9.7,4.767-19.273,10.134-26.662,18.181c-5.498,5.988-11.338,15.066-10.313,23.616
		c0.958,7.997,9.146,11.613,16.456,10.393c8.675-1.448,16.626-7.579,23.041-13.289c13.256-11.797,22.9-26.923,35.116-39.695
		c6.269-6.555,13.302-12.518,21.592-16.347c8.433-3.894,19.907-6.13,28.057-0.296c11.84,8.475,2.894,24.286-4.232,32.616
		c-6.561,7.669-14.748,13.707-23.193,19.139c-15.637,10.058-32.863,18.363-45.91,31.92c-5.515,5.73-12.319,14.258-8.837,22.72
		c2.784,6.765,11.18,9.081,17.817,7.674c5.534-1.174,10.281-4.567,14.638-8.004c5.441-4.292,10.741-8.774,16.102-13.165
		c11.66-9.55,23.015-19.812,35.204-28.678c5.397-3.925,12.021-7.557,18.901-5.814c8.845,2.241,11.411,10.604,6.242,17.922
		c-7.096,10.046-18.884,17.765-29.841,23.447c2.221-3.658,3.956-7.721,4.314-11.91c0.048-0.568-0.848-0.814-1.091-0.296
		c-2.457,5.246-4.413,10.283-7.963,14.948c-0.62,0.815,0.258,1.705,1.035,1.803c6.183,0.78,12.438,1.565,18.672,1.747
		c1.539,0.045,1.476-2.202,0-2.352c-4.834-0.491-9.674-0.845-14.507-1.334c10.006-5.164,19.371-11.732,27.284-19.769
		C466.709,216.276,472.205,207.398,465.734,200.099z"/>
	<path style="fill:#1D1D1B;" d="M483.665,156.228c-3.598,4.231-7.072,8.572-10.579,12.881c-0.156-0.298-0.31-0.598-0.468-0.894
		c0.093-0.119,0.167-0.264,0.194-0.461c2.83-20.301-1.86-42.089-14.214-58.656c-0.213-0.286-0.687-0.034-0.492,0.287
		c10.35,17.093,15.219,36.022,12.867,55.896c-2.469-4.247-5.243-8.274-8.447-12.072c-0.487-0.578-1.477,0.182-1.052,0.812
		c3.87,5.732,7.394,11.675,10.308,17.954c0.318,0.684,1.466,0.833,1.946,0.251c3.905-4.737,7.882-9.426,11.696-14.238
		C486.4,156.758,484.716,154.991,483.665,156.228z"/>
	<path style="fill:#1D1D1B;" d="M125.927,263.8c-5.707,0.358-11.367-0.052-17.06-0.426c-0.6-0.039-0.722,0.908-0.142,1.046
		c4.266,1.017,8.599,1.419,12.958,1.555c-10.544,8.855-20.523,18.91-29.228,29.519c1.511-5.492,2.446-11.017,2.367-16.749
		c-0.007-0.484-0.804-0.636-0.881-0.119c-0.886,6.011-2.037,11.951-3.983,17.717c-0.229,0.679,0.376,1.375,1.049,1.377
		c6.079,0.022,12.111-0.573,18.057-1.848c1.397-0.3,0.802-2.415-0.589-2.136c-5.088,1.022-10.173,1.596-15.337,1.745
		c9.999-10.22,20.202-19.962,30.884-29.458c0.098,0.001,0.197,0.001,0.295,0.002c-1.792,4.646-3.488,9.331-5.21,14.003
		c-0.538,1.459,1.8,2.095,2.329,0.642c1.874-5.144,3.798-10.275,5.568-15.456C127.231,264.553,126.626,263.756,125.927,263.8z"/>
	<path style="fill:#1D1D1B;" d="M118.502,47.322c-9.587-7.496-21.731-9.338-33.551-9.871c-11.643-0.525-32.726,2.334-39.128-10.365
		c-0.728-1.443-2.816-0.178-2.149,1.256c6.529,14.056,28.847,11.23,41.277,11.784c17.945,0.8,41.174,6.878,41.977,28.767
		c0.677,18.474-12.055,37.004-25.472,48.635c-14.321,12.414-41.226,18.932-51.933-1.791c-5.431-10.512-0.695-22.478,9.493-27.895
		c4.733-2.516,10.397-3.554,15.601-1.988c6.514,1.959,10.668,9.731,6.509,15.701c-0.362,0.52,0.47,0.977,0.838,0.49
		c4.856-6.417,1.068-14.873-5.942-17.648c-7.707-3.052-16.919-0.112-22.924,5.154c-15.229,13.356-6.136,36.1,12.021,40.791
		c21.617,5.586,40.682-11.054,52.223-27.427C128.64,86.889,136.748,61.589,118.502,47.322z"/>
	<path style="fill:#1D1D1B;" d="M60.055,25.075c-5.89-0.931-11.874-0.825-17.789-1.922c-0.812-0.151-1.532,0.341-1.57,1.196
		c-0.299,6.654,0.006,13.233,0.964,19.827c0.089,0.615,1.069,0.453,1.067-0.145c-0.023-6.069,0.09-12.135,0.383-18.197
		c5.482,1.05,11.487,2.05,16.945,1.255C61.057,26.943,61.047,25.232,60.055,25.075z"/>
	<path style="fill:#1D1D1B;" d="M164.042,28.718c-5.081-2.33-10.885-5.937-16.421-6.93c-0.493-0.088-1.028,0.548-0.549,0.943
		c3.135,2.583,7.341,4.379,11.347,6.071c-13.65,4.003-28.027,1.616-39.203-7.483c-0.243-0.198-0.593,0.136-0.351,0.351
		c11.019,9.725,26.91,13.326,40.898,8.363c0.249-0.088,0.398-0.26,0.473-0.456c0.153,0.066,0.311,0.132,0.463,0.197
		c-4.534,2.314-8.774,5.152-12.797,8.275c-1.267,0.983,0.513,2.751,1.767,1.768c4.502-3.529,9.316-6.423,14.372-9.078
		C164.773,30.354,164.837,29.083,164.042,28.718z"/>
</g>
</svg>
