<svg viewBox="0 0 200 200" xmlns="http://www.w3.org/2000/svg">
  <path fill="#EEF9F8" d="M45.7,-77.6C58.8,-71.5,68.7,-58.4,74.4,-44.3C80.2,-30.2,81.9,-15.1,79.8,-1.2C77.8,12.8,72.1,25.6,65,37.4C58,49.3,49.5,60.2,38.4,69C27.4,77.9,13.7,84.6,-0.8,85.9C-15.2,87.3,-30.4,83.1,-43.6,75.5C-56.8,67.9,-68,56.8,-75.8,43.7C-83.5,30.5,-87.7,15.3,-88.7,-0.5C-89.6,-16.3,-87.3,-32.7,-79.1,-45.1C-70.9,-57.5,-56.9,-65.9,-42.8,-71.3C-28.6,-76.8,-14.3,-79.2,1,-80.9C16.3,-82.6,32.6,-83.6,45.7,-77.6Z" transform="translate(100 100)" />
</svg>