<svg id="be35e116-84c2-4fdd-9559-5f1ec5493f1b" data-name="Layer 1" xmlns="http://www.w3.org/2000/svg" width="865.76" height="682.89" viewBox="0 0 865.76 682.89"><path d="M290.28,491.1c-1.54,3.33-3,6.7-4.2,10.17-6.5,18.43-7.61,36.24-7.48,47.38a103.34,103.34,0,0,0,.68,11.58l-1,0c-16.78-.57-27,2.17-33.24,5.48l-.54.29c-.3.15-.58.32-.85.48s-.63.38-.92.57h0c-4.46,2.87-6.18,5.89-6.8,7.37a10,10,0,0,1-.3-1.52,39,39,0,0,1,1.6-7.58,146,146,0,0,1,7.33-18.48c1.64-3.56,3.41-7.06,5.27-10.51L250,536l.12-.22,0-.07,0,0,7.06-12,1.58-2.47c2.76-4.26,5.46-9,8.07-13.91v0c2.06-3.53,4.53-8.68,7.09-14.37a1.17,1.17,0,0,0,.05-.11c6.45-13.94,11.87-27.88,15.3-37.24a2.35,2.35,0,0,0,.14-.37,1.89,1.89,0,0,0,.09-.21c0-.1.06-.18.08-.23a.39.39,0,0,0,0-.06s0,0,0,0c.1-.25.19-.49.27-.73l.53-1.46a14.46,14.46,0,0,0,.85-5.69,5.81,5.81,0,0,0-.05-.72,11.46,11.46,0,0,0-.21-1.43c0-.05,0-.09,0-.13a1.19,1.19,0,0,0,0-.23v0h0C307,452.2,294.11,482.87,290.28,491.1Z" fill="#2f2e41"/><path d="M290.28,491.1c-1.54,3.33-3,6.7-4.2,10.17-6.5,18.43-7.61,36.24-7.48,47.38a103.34,103.34,0,0,0,.68,11.58l-1,0c-16.78-.57-27,2.17-33.24,5.48l-.54.29c-.3.15-.58.32-.85.48s-.63.38-.92.57h0c-4.46,2.87-6.18,5.89-6.8,7.37a10,10,0,0,1-.3-1.52,39,39,0,0,1,1.6-7.58,146,146,0,0,1,7.33-18.48c1.64-3.56,3.41-7.06,5.27-10.51L250,536l.12-.22,0-.07,0,0,7.06-12,1.58-2.47c2.76-4.26,5.46-9,8.07-13.91v0c2.06-3.53,4.53-8.68,7.09-14.37a1.17,1.17,0,0,0,.05-.11c6.45-13.94,11.87-27.88,15.3-37.24a2.35,2.35,0,0,0,.14-.37,1.89,1.89,0,0,0,.09-.21c0-.1.06-.18.08-.23a.39.39,0,0,0,0-.06s0,0,0,0c.1-.25.19-.49.27-.73l.53-1.46a14.46,14.46,0,0,0,.85-5.69,5.81,5.81,0,0,0-.05-.72,11.46,11.46,0,0,0-.21-1.43c0-.05,0-.09,0-.13a1.19,1.19,0,0,0,0-.23v0h0C307,452.2,294.11,482.87,290.28,491.1Z" opacity="0.2"/><path d="M373.16,342.34l7.47-48.66a14.71,14.71,0,0,1,14.55-12.48H763.09A14.09,14.09,0,0,1,777,297.43l-47.7,310.63Z" fill="#bcbec0"/><path d="M324.39,627.89H715a14.29,14.29,0,0,0,14.3-14.29V401a14.69,14.69,0,0,0-14.75-14.69L548,386.88l-13-39a12.66,12.66,0,0,0-12-8.68H337.85A14.74,14.74,0,0,0,323.11,354Z" fill="#d1d3d4"/><path d="M519.88,536.26v20.79h68.87a40.52,40.52,0,0,0,14.7-2.65c15.74-6.13,18.93-18.89,19-28A34.94,34.94,0,0,0,616,506c-16.61-23.32-47.23-4.76-47.23-4.76a33,33,0,0,0-6.33-23.39,31.22,31.22,0,0,0-19.06-12.41c-21.21-4.29-31.2,16.55-31.2,16.55a57.35,57.35,0,0,0-3-19.05c-9-25.85-40.64-36.18-63.05-20.47-20.38,14.29-18.28,43-18.28,43-45.05-11.94-52,25.79-52,25.79-3.27,19.25,5.11,30.71,14.3,37.35a45.86,45.86,0,0,0,26.91,8.47h54.27V536.64H450.57l45.05-53.11,44.28,52.34Z" fill="#fff"/><path d="M468,627.89,381,339.16H337.46a14.49,14.49,0,0,0-14.35,14.62l1.28,274.11Z" fill="#fff" opacity="0.2"/><polygon points="382.55 102.36 419.2 311.13 689.47 262.62 653.09 52.12 382.55 102.36" fill="#d1d3d4"/><polygon points="392.34 110.16 426.99 300.73 679.08 256.55 643.56 63.18 392.34 110.16" fill="#fff"/><polygon points="469.44 195.34 420.05 262.54 426.99 300.73 679.08 256.55 669.19 202.75 578.01 132.39 526.21 240.96 469.44 195.34" fill="#bcbec0"/><circle cx="501.44" cy="149.38" r="28.06" fill="#bcbec0"/><path d="M348,460.5,329.21,571.38h0l-.64,3.77a14.29,14.29,0,0,1-.86,2c-1.2-4.17-6.69-7.62-12.18-10.1a67,67,0,0,0-19.18-5.37c-6.34-.81-12-1.27-17.11-1.44a103.34,103.34,0,0,1-.68-11.58c-.13-11.14,1-28.95,7.48-47.38,1.22-3.47,2.66-6.84,4.2-10.17,3.83-8.23,16.73-38.9.69-46.87a14.82,14.82,0,0,0-2.42-5.36c-13-18-32.75-67.39-32.75-67.39-.85,4.28-16.95,42.2-25.22,61.53-2.55,6-4.91,12-7,18.17-10.5,31.22-34.41,75.07-34.41,75.07l-16.93,33.88c0-.17,0-.33,0-.49.72-8.42-5.68-14.1-12-17.61a44.67,44.67,0,0,0-17.39-5.3c-42.73-4.24-47.68,13.77-47.68,13.77v-.41c-.08-13.23,11.34-32.11,15-37.88.94-1.46,1.84-3,2.7-4.47l32.33-56.57c14.24-28.1,44.86-150.32,44.86-150.32,10.42-11.85,76.41-2.91,76.41-2.91,36.29,4.07,44.11,16.78,45.76,21.4.6,1.64,1.2,3.29,1.89,4.89C323.8,346.39,343.83,409,343.83,409c3,6.83,4.56,14.71,5.29,21.89A110.38,110.38,0,0,1,348,460.5Z" fill="#2f2e41"/><path d="M327.43,575.55a3,3,0,0,1-.06,3.17c-6.16,9.1-24.26,15.44-45,15.46-22.94,0-44-7.19-46.05-18.55-.39-.27-.47-.34-.39-1.24.36-1,2-4.51,6.77-7.39h0c.3-.19.6-.39.92-.58s.55-.33.85-.48l.54-.29c6.23-3.31,16.46-6,33.24-5.48l1,0c5.09.16,10.77.62,17.11,1.43A66.9,66.9,0,0,1,315.54,567C320.23,569.13,325.41,572.18,327.43,575.55Z" fill="#2f2e41"/><path d="M327.43,575.55a3,3,0,0,1-.06,3.17c-6.16,9.1-24.26,15.44-45,15.46-22.94,0-44-7.19-46.05-18.55-.39-.27-.47-.34-.39-1.24.36-1,2-4.51,6.77-7.39h0c.3-.19.6-.39.92-.58s.55-.33.85-.48l.54-.29c6.23-3.31,16.46-6,33.24-5.48l1,0c5.09.16,10.77.62,17.11,1.43A66.9,66.9,0,0,1,315.54,567C320.23,569.13,325.41,572.18,327.43,575.55Z" opacity="0.4"/><path d="M263.62,568.52l-1.13,32.84s15,12.19,40-1.17l6.7-30A105.8,105.8,0,0,0,263.62,568.52Z" fill="#f9b499"/><path d="M253.63,618.94s-3.45-20.6,3.53-24.74c0,0,17,12.2,40-1.17l28.77,14.63s16.75,3.77,13.57,14.74c0,0,1.16,3.47-18.77,2.89C320.73,625.29,268,625.58,253.63,618.94Z" fill="#069881"/><path d="M255,625.4l-1.33-6.46s5.18,3.36,28.16,5c-1-.37,56.66,4.34,57.71-1.52,0,0,2,8.38-21.66,8.09l-40.71-1.06-.29-1.56a3.3,3.3,0,0,0-3.32-2.68c-2.34.06-5.21.68-4.86,3.47L258,628A3.31,3.31,0,0,1,255,625.4Z" fill="#2f2e41"/><path d="M172.26,559.64c-5.95,9.21-20.3,15.7-37.06,15.7-21.92,0-39.71-11.09-40-24.84,0,0,5-18,47.68-13.77a44.67,44.67,0,0,1,17.39,5.3C166.58,545.54,173,551.22,172.26,559.64Z" fill="#2f2e41"/><path d="M172.26,559.64c-5.95,9.21-20.3,15.7-37.06,15.7-21.92,0-39.71-11.09-40-24.84,0,0,5-18,47.68-13.77a44.67,44.67,0,0,1,17.39,5.3C166.58,545.54,173,551.22,172.26,559.64Z" opacity="0.4"/><path d="M108.16,539.55,94.39,596.36s20.33,7.49,45.12-7.49l19.76-47.38S137.91,530.9,108.16,539.55Z" fill="#f9b499"/><path d="M88.68,618.94s-1.25-16.34,5.71-22.58c0,0,18.37,7.67,45.12-7.49a73.69,73.69,0,0,0,29.61,16.59s14.63,5.88,10.88,14.8c0,0-.53,3.21-15.33,3.21C164.67,623.47,96.88,621.72,88.68,618.94Z" fill="#069881"/><path d="M88.63,623.94l.05-5s4.84,1.42,21.6,2.3l51.53,2.23s15.7.89,18.19-3.21c0,0,.36,6.42-3.56,6.78H91.69A3.06,3.06,0,0,1,88.63,623.94Z" fill="#2f2e41"/><path d="M176.3,334.55s-5.74-25.54,12.11-32.89a24.66,24.66,0,0,0,4.36-2.33c2.75-1.85,9.64-3.58,23.29-4.61a341.89,341.89,0,0,1,66.84,6s27.17,4.75,30.43,21.39L317.75,261l66.6-24.25,19.18-14.83-6.22-35.45-36.44,34.87s-52-50-63.53-52.74c0,0-23.67-14-41-7,0,0-22.23,1.45-35.81,37,0,0-23.1,60-38.69,82.28S166.65,328.15,176.3,334.55Z" fill="#069881"/><path d="M232.37,236.34,279,277.08a32.19,32.19,0,0,0,16.89,7.71c5.94.8,14.2.87,25.18-1.09l27.14-5.2s-24.25-28-9-48.22l-32.92,11.26-47.64-44.76" fill="#069881" stroke="#069881" stroke-miterlimit="10"/><path d="M342.4,228.82c2.27.45,5.42,4.16,7.55,9.84l-15.1.85a24.36,24.36,0,0,1,2.85-7.32C338.65,230.7,340.66,228.48,342.4,228.82Z" opacity="0.2"/><path d="M334.85,239.51l49.5-2.78,19.18-14.83,1.93,10.95,26.44-9.49a3.65,3.65,0,0,1,4.82,2.77l3.06,16.72a3.66,3.66,0,0,1-2,3.94l-23.12,11.15a17.34,17.34,0,0,1-9.3,1.62l-2.59-.27a17,17,0,0,0-7.88,1L348.16,278.5S330.48,257.4,334.85,239.51Z" fill="#f9b499"/><path d="M263.34,159.62l9.06-37.19,28.28,27.74-2.9,23.17S272.68,177.07,263.34,159.62Z" fill="#f9b499"/><g opacity="0.2"><path d="M283.6,180.18a29.91,29.91,0,0,1-11.18-2.07c-12-4.77-16.35-16.32-16.4-16.44l.64-.23c0,.11,4.33,11.4,16,16.05,9.28,3.69,20.42,2.39,33.43-4l.68.48C298.41,178.06,290.51,180.18,283.6,180.18Z"/></g><path d="M180.32,338.64l9.81-37.79s-19.21,1.84-14.19,33.33Z" fill="#069881"/><path d="M180.32,338.64l9.81-37.79s-19.21,1.84-14.19,33.33Z" opacity="0.2"/><path d="M304.18,286a64.41,64.41,0,0,1-8.43-.53,32.67,32.67,0,0,1-17.24-7.87l-46.58-40.74.89-1,46.57,40.74a31.31,31.31,0,0,0,16.53,7.55c7.17,1,15.58.6,25-1.09l26-5c-3.84-4.83-21.06-28.3-9.45-46.47l-31.35,10.73-47.94-45,.92-1,47.35,44.48,34.62-11.84-1.33,1.75c-14.8,19.54,8.68,47.1,8.92,47.38l.77.88-28.29,5.42A96.8,96.8,0,0,1,304.18,286Z" fill="#069881"/><g opacity="0.2"><path d="M304.18,286a64.41,64.41,0,0,1-8.43-.53,32.67,32.67,0,0,1-17.24-7.87l-46.58-40.74.89-1,46.57,40.74a31.31,31.31,0,0,0,16.53,7.55c7.17,1,15.58.6,25-1.09l26-5c-3.84-4.83-21.06-28.3-9.45-46.47l-31.35,10.73-47.94-45,.92-1,47.35,44.48,34.62-11.84-1.33,1.75c-14.8,19.54,8.68,47.1,8.92,47.38l.77.88-28.29,5.42A96.8,96.8,0,0,1,304.18,286Z"/></g><path d="M268.58,138.12,272,124.31l15.46,28.2S271,157.32,268.58,138.12Z" fill="#f4a48e"/><ellipse cx="297.78" cy="120.24" rx="34.25" ry="23.66" transform="translate(59.71 335.77) rotate(-64.14)" fill="#f9b499"/><path d="M249.48,138.93l3.13,2.26a2,2,0,0,0,2.6-.18h0a2,2,0,0,1,3.39,2l-.19.78a2,2,0,0,0,1,2.28l4.1,2.15a2,2,0,0,0,2.92-1.3l3.68-14.35c0-.09.06-.19.1-.28l3.49-8.39.06-.16,6.54-19.81a1.88,1.88,0,0,1,.27-.55c1.53-2.15,12.6-17.38,26.62-8.65a2,2,0,0,1,.86,1.16C309,98.94,312.84,111.06,322,116a2,2,0,0,1,1.05,2.23c-1.18,5.43-6.14,23.47-21.43,31.49a2.07,2.07,0,0,0-1.11,1.56l-.77,6.09a2,2,0,0,0,2,2.29h13a2,2,0,0,0,1.8-1.08c3.4-6.39,20.43-39.5,18.74-57.19,0,0-.3-23.91-24.47-17.44a2,2,0,0,1-1.86-.45c-3.5-3.15-18.47-14.15-37.24,7.61a114,114,0,0,0-23.05,45.71A2.05,2.05,0,0,0,249.48,138.93Z" fill="#2f2e41"/><ellipse cx="273.78" cy="113.82" rx="6.7" ry="10.91" fill="#f9b499"/><ellipse cx="292.59" cy="95.94" rx="15.26" ry="9.67" transform="translate(-13.62 128.32) rotate(-24.19)" fill="#2f2e41"/></svg>