<svg id="wave" style="transform:rotate(180deg); transition: 0.3s" viewBox="0 0 1440 340" version="1.1" xmlns="http://www.w3.org/2000/svg">
    <defs>
        <linearGradient id="sw-gradient-0" x1="0" x2="0" y1="1" y2="0">
            <stop stop-color="rgba(6, 152, 129, 1)" offset="0%"></stop>
            <stop stop-color="rgba(6, 152, 129, 1)" offset="100%"></stop>
        </linearGradient>
    </defs>
    <path style="transform:translate(0, 0px); opacity:1" fill="url(#sw-gradient-0)"
        d="M0,300L40,291.8C80,284,160,267,240,210.2C320,153,400,55,480,55C560,55,640,153,720,202C800,251,880,251,960,251C1040,251,1120,251,1200,242.8C1280,235,1360,218,1440,218.3C1520,218,1600,235,1680,193.8C1760,153,1840,55,1920,46.8C2000,39,2080,120,2160,169.3C2240,218,2320,235,2400,242.8C2480,251,2560,251,2640,202C2720,153,2800,55,2880,30.5C2960,6,3040,55,3120,71.3C3200,88,3280,71,3360,95.8C3440,120,3520,186,3600,161.2C3680,137,3760,22,3840,0.3C3920,-21,4000,20,4080,27.8C4160,36,4240,36,4320,85C4400,134,4480,232,4560,248.3C4640,265,4720,199,4800,142.2C4880,85,4960,36,5040,85C5120,134,5200,281,5280,321.8C5360,364,5440,298,5520,257.5C5600,217,5680,200,5720,192.2L5760,184L5760,340L5720,340C5680,340,5600,340,5520,340C5440,340,5360,340,5280,340C5200,340,5120,340,5040,340C4960,340,4880,340,4800,340C4720,340,4640,340,4560,340C4480,340,4400,340,4320,340C4240,340,4160,340,4080,340C4000,340,3920,340,3840,340C3760,340,3680,340,3600,340C3520,340,3440,340,3360,340C3280,340,3200,340,3120,340C3040,340,2960,340,2880,340C2800,340,2720,340,2640,340C2560,340,2480,340,2400,340C2320,340,2240,340,2160,340C2080,340,2000,340,1920,340C1840,340,1760,340,1680,340C1600,340,1520,340,1440,340C1360,340,1280,340,1200,340C1120,340,1040,340,960,340C880,340,800,340,720,340C640,340,560,340,480,340C400,340,320,340,240,340C160,340,80,340,40,340L0,340Z">
    </path>
    <defs>
        <linearGradient id="sw-gradient-1" x1="0" x2="0" y1="1" y2="0">
            <stop stop-color="rgba(6, 152, 129, 1)" offset="0%"></stop>
            <stop stop-color="rgba(6, 152, 129, 1)" offset="100%"></stop>
        </linearGradient>
    </defs>
    <path style="transform:translate(0, 50px); opacity:0.9" fill="url(#sw-gradient-1)"
        d="M0,300L40,283.7C80,267,160,235,240,177.5C320,120,400,39,480,30.5C560,22,640,88,720,104C800,120,880,88,960,71.3C1040,55,1120,55,1200,79.8C1280,104,1360,153,1440,169.3C1520,185,1600,168,1680,184.7C1760,202,1840,251,1920,259.2C2000,267,2080,235,2160,242.8C2240,251,2320,300,2400,308.2C2480,316,2560,284,2640,275.5C2720,267,2800,284,2880,267.3C2960,251,3040,202,3120,144.8C3200,88,3280,22,3360,22.3C3440,22,3520,88,3600,87.7C3680,88,3760,22,3840,46.8C3920,71,4000,186,4080,234.7C4160,284,4240,267,4320,218.3C4400,169,4480,88,4560,87.7C4640,88,4720,169,4800,193.8C4880,218,4960,186,5040,144.8C5120,104,5200,55,5280,46.8C5360,39,5440,71,5520,104C5600,137,5680,169,5720,185.7L5760,202L5760,340L5720,340C5680,340,5600,340,5520,340C5440,340,5360,340,5280,340C5200,340,5120,340,5040,340C4960,340,4880,340,4800,340C4720,340,4640,340,4560,340C4480,340,4400,340,4320,340C4240,340,4160,340,4080,340C4000,340,3920,340,3840,340C3760,340,3680,340,3600,340C3520,340,3440,340,3360,340C3280,340,3200,340,3120,340C3040,340,2960,340,2880,340C2800,340,2720,340,2640,340C2560,340,2480,340,2400,340C2320,340,2240,340,2160,340C2080,340,2000,340,1920,340C1840,340,1760,340,1680,340C1600,340,1520,340,1440,340C1360,340,1280,340,1200,340C1120,340,1040,340,960,340C880,340,800,340,720,340C640,340,560,340,480,340C400,340,320,340,240,340C160,340,80,340,40,340L0,340Z">
    </path>
</svg>
