<svg id="wave" style="transform:rotate(180deg); transition: 0.3s" viewBox="0 0 1440 490" version="1.1" xmlns="http://www.w3.org/2000/svg"><defs><linearGradient id="sw-gradient-0" x1="0" x2="0" y1="1" y2="0"><stop stop-color="rgba(6, 152, 129, 1)" offset="0%"></stop><stop stop-color="rgba(6, 152, 129, 1)" offset="100%"></stop></linearGradient></defs><path style="transform:translate(0, 0px); opacity:1" fill="url(#sw-gradient-0)" d="M0,392L40,383.8C80,376,160,359,240,302.2C320,245,400,147,480,147C560,147,640,245,720,294C800,343,880,343,960,343C1040,343,1120,343,1200,334.8C1280,327,1360,310,1440,310.3C1520,310,1600,327,1680,285.8C1760,245,1840,147,1920,138.8C2000,131,2080,212,2160,261.3C2240,310,2320,327,2400,334.8C2480,343,2560,343,2640,294C2720,245,2800,147,2880,122.5C2960,98,3040,147,3120,163.3C3200,180,3280,163,3360,187.8C3440,212,3520,278,3600,253.2C3680,229,3760,114,3840,65.3C3920,16,4000,33,4080,40.8C4160,49,4240,49,4320,98C4400,147,4480,245,4560,261.3C4640,278,4720,212,4800,155.2C4880,98,4960,49,5040,98C5120,147,5200,294,5280,334.8C5360,376,5440,310,5520,269.5C5600,229,5680,212,5720,204.2L5760,196L5760,490L5720,490C5680,490,5600,490,5520,490C5440,490,5360,490,5280,490C5200,490,5120,490,5040,490C4960,490,4880,490,4800,490C4720,490,4640,490,4560,490C4480,490,4400,490,4320,490C4240,490,4160,490,4080,490C4000,490,3920,490,3840,490C3760,490,3680,490,3600,490C3520,490,3440,490,3360,490C3280,490,3200,490,3120,490C3040,490,2960,490,2880,490C2800,490,2720,490,2640,490C2560,490,2480,490,2400,490C2320,490,2240,490,2160,490C2080,490,2000,490,1920,490C1840,490,1760,490,1680,490C1600,490,1520,490,1440,490C1360,490,1280,490,1200,490C1120,490,1040,490,960,490C880,490,800,490,720,490C640,490,560,490,480,490C400,490,320,490,240,490C160,490,80,490,40,490L0,490Z"></path><defs><linearGradient id="sw-gradient-1" x1="0" x2="0" y1="1" y2="0"><stop stop-color="rgba(6, 152, 129, 1)" offset="0%"></stop><stop stop-color="rgba(6, 152, 129, 1)" offset="100%"></stop></linearGradient></defs><path style="transform:translate(0, 50px); opacity:0.9" fill="url(#sw-gradient-1)" d="M0,392L40,375.7C80,359,160,327,240,269.5C320,212,400,131,480,122.5C560,114,640,180,720,196C800,212,880,180,960,163.3C1040,147,1120,147,1200,171.5C1280,196,1360,245,1440,261.3C1520,278,1600,261,1680,277.7C1760,294,1840,343,1920,351.2C2000,359,2080,327,2160,334.8C2240,343,2320,392,2400,400.2C2480,408,2560,376,2640,367.5C2720,359,2800,376,2880,359.3C2960,343,3040,294,3120,236.8C3200,180,3280,114,3360,114.3C3440,114,3520,180,3600,179.7C3680,180,3760,114,3840,138.8C3920,163,4000,278,4080,326.7C4160,376,4240,359,4320,310.3C4400,261,4480,180,4560,179.7C4640,180,4720,261,4800,285.8C4880,310,4960,278,5040,236.8C5120,196,5200,147,5280,138.8C5360,131,5440,163,5520,196C5600,229,5680,261,5720,277.7L5760,294L5760,490L5720,490C5680,490,5600,490,5520,490C5440,490,5360,490,5280,490C5200,490,5120,490,5040,490C4960,490,4880,490,4800,490C4720,490,4640,490,4560,490C4480,490,4400,490,4320,490C4240,490,4160,490,4080,490C4000,490,3920,490,3840,490C3760,490,3680,490,3600,490C3520,490,3440,490,3360,490C3280,490,3200,490,3120,490C3040,490,2960,490,2880,490C2800,490,2720,490,2640,490C2560,490,2480,490,2400,490C2320,490,2240,490,2160,490C2080,490,2000,490,1920,490C1840,490,1760,490,1680,490C1600,490,1520,490,1440,490C1360,490,1280,490,1200,490C1120,490,1040,490,960,490C880,490,800,490,720,490C640,490,560,490,480,490C400,490,320,490,240,490C160,490,80,490,40,490L0,490Z"></path></svg>