<svg xmlns="http://www.w3.org/2000/svg" xmlns:xlink="http://www.w3.org/1999/xlink" width="500" zoomAndPan="magnify" viewBox="0 0 375 374.999991" height="500" preserveAspectRatio="xMidYMid meet" version="1.0"><defs><g/><clipPath id="02fc3a702d"><path d="M 283.164062 135.058594 L 370 135.058594 L 370 220.558594 L 283.164062 220.558594 Z M 283.164062 135.058594 " clip-rule="nonzero"/></clipPath></defs><rect x="-37.5" width="450" fill="#ffffff" y="-37.499999" height="449.999989" fill-opacity="1"/><rect x="-37.5" width="450" fill="#01796f" y="-37.499999" height="449.999989" fill-opacity="1"/><g clip-path="url(#02fc3a702d)"><path fill="#ffffff" d="M 311.339844 135.058594 C 312.160156 135.058594 312.820312 135.71875 312.820312 136.535156 L 312.820312 140.957031 C 312.820312 141.769531 312.160156 142.429688 311.339844 142.429688 C 310.523438 142.429688 309.859375 141.769531 309.859375 140.957031 L 309.859375 136.535156 C 309.859375 135.71875 310.523438 135.058594 311.339844 135.058594 Z M 311.339844 149.800781 C 303.980469 149.800781 298.011719 155.742188 298.011719 163.070312 C 298.011719 170.394531 303.980469 176.335938 311.339844 176.335938 C 318.699219 176.335938 324.667969 170.394531 324.667969 163.070312 C 324.667969 155.742188 318.699219 149.800781 311.339844 149.800781 Z M 295.050781 163.070312 C 295.050781 154.113281 302.34375 146.851562 311.339844 146.851562 C 320.335938 146.851562 327.628906 154.113281 327.628906 163.070312 C 327.628906 172.023438 320.335938 179.285156 311.339844 179.285156 C 302.34375 179.285156 295.050781 172.023438 295.050781 163.070312 Z M 337.996094 164.542969 C 338.816406 164.542969 339.476562 163.882812 339.476562 163.070312 C 339.476562 162.253906 338.816406 161.59375 337.996094 161.59375 L 333.554688 161.59375 C 332.738281 161.59375 332.074219 162.253906 332.074219 163.070312 C 332.074219 163.882812 332.738281 164.542969 333.554688 164.542969 Z M 331.238281 182.875 C 330.660156 183.449219 329.722656 183.449219 329.144531 182.875 L 326 179.746094 C 325.421875 179.171875 325.421875 178.238281 326 177.660156 C 326.578125 177.085938 327.515625 177.085938 328.09375 177.660156 L 331.238281 180.789062 C 331.816406 181.363281 331.816406 182.296875 331.238281 182.875 Z M 293.539062 182.875 C 292.960938 183.449219 292.023438 183.449219 291.445312 182.875 C 290.867188 182.296875 290.867188 181.363281 291.445312 180.789062 L 294.585938 177.660156 C 295.164062 177.085938 296.101562 177.085938 296.679688 177.660156 C 297.257812 178.238281 297.257812 179.171875 296.679688 179.746094 Z M 311.339844 183.707031 C 312.160156 183.707031 312.820312 184.367188 312.820312 185.179688 L 312.820312 189.601562 C 312.820312 190.417969 312.160156 191.078125 311.339844 191.078125 C 310.523438 191.078125 309.859375 190.417969 309.859375 189.601562 L 309.859375 185.179688 C 309.859375 184.367188 310.523438 183.707031 311.339844 183.707031 Z M 289.128906 164.542969 C 289.945312 164.542969 290.609375 163.882812 290.609375 163.070312 C 290.609375 162.253906 289.945312 161.59375 289.128906 161.59375 L 284.683594 161.59375 C 283.867188 161.59375 283.203125 162.253906 283.203125 163.070312 C 283.203125 163.882812 283.867188 164.542969 284.683594 164.542969 Z M 296.679688 148.476562 C 296.101562 149.050781 295.164062 149.050781 294.585938 148.476562 L 291.445312 145.347656 C 290.867188 144.773438 290.867188 143.839844 291.445312 143.261719 C 292.023438 142.6875 292.960938 142.6875 293.539062 143.261719 L 296.679688 146.390625 C 297.257812 146.964844 297.257812 147.898438 296.679688 148.476562 Z M 328.09375 148.476562 C 327.515625 149.050781 326.578125 149.050781 326 148.476562 C 325.421875 147.898438 325.421875 146.964844 326 146.390625 L 329.140625 143.261719 C 329.722656 142.6875 330.660156 142.6875 331.238281 143.261719 C 331.816406 143.839844 331.816406 144.773438 331.238281 145.347656 Z M 321.882812 195.5 C 321.332031 195.5 320.824219 195.804688 320.570312 196.289062 L 316.332031 204.34375 L 330 204.34375 L 334.183594 195.5 Z M 328.605469 207.292969 L 314.777344 207.292969 L 310.484375 215.453125 C 309.964844 216.433594 310.679688 217.613281 311.792969 217.613281 L 323.730469 217.613281 Z M 331.878906 207.292969 L 344.898438 207.292969 L 340.019531 217.613281 L 327.003906 217.613281 Z M 346.289062 204.34375 L 333.273438 204.34375 L 337.453125 195.5 L 350.472656 195.5 Z M 348.167969 207.292969 L 343.292969 217.613281 L 354.550781 217.613281 C 355.101562 217.613281 355.609375 217.308594 355.863281 216.820312 L 360.878906 207.292969 Z M 362.429688 204.34375 L 349.5625 204.34375 L 353.746094 195.5 L 364.640625 195.5 C 365.753906 195.5 366.46875 196.675781 365.953125 197.65625 Z M 317.949219 194.921875 C 318.714844 193.464844 320.230469 192.550781 321.882812 192.550781 L 364.640625 192.550781 C 367.980469 192.550781 370.125 196.082031 368.574219 199.027344 L 358.488281 218.191406 C 357.71875 219.648438 356.203125 220.558594 354.550781 220.558594 L 311.792969 220.558594 C 308.453125 220.558594 306.308594 217.027344 307.859375 214.085938 Z M 317.949219 194.921875 " fill-opacity="1" fill-rule="evenodd"/></g><g fill="#ffffff" fill-opacity="1"><g transform="translate(18.198521, 156.947901)"><g><path d="M 26.375 -46.546875 C 30.65625 -46.546875 34.304688 -45.800781 37.328125 -44.3125 L 37.328125 -33.796875 L 37.265625 -33.734375 C 35.984375 -35.703125 33.28125 -37.003906 29.15625 -37.640625 C 27.945312 -37.847656 26.414062 -37.953125 24.5625 -37.953125 C 22.707031 -37.953125 20.882812 -37.601562 19.09375 -36.90625 C 17.3125 -36.207031 15.847656 -35.21875 14.703125 -33.9375 C 12.484375 -31.4375 11.375 -27.875 11.375 -23.25 C 11.375 -17.875 12.78125 -13.867188 15.59375 -11.234375 C 17.925781 -9.035156 21.019531 -7.9375 24.875 -7.9375 C 29.21875 -7.9375 32.742188 -8.863281 35.453125 -10.71875 C 36.429688 -11.382812 37.265625 -12.207031 37.953125 -13.1875 L 38.0625 -13.125 L 38.0625 -3.5 C 34.550781 -0.59375 29.832031 0.859375 23.90625 0.859375 C 16.925781 0.859375 11.453125 -1.363281 7.484375 -5.8125 C 3.679688 -10.039062 1.78125 -15.648438 1.78125 -22.640625 C 1.78125 -30.035156 3.863281 -35.863281 8.03125 -40.125 C 12.25 -44.40625 18.363281 -46.546875 26.375 -46.546875 Z M 26.375 -46.546875 "/></g></g></g><g fill="#ffffff" fill-opacity="1"><g transform="translate(54.079314, 156.947901)"><g><path d="M 9.65625 -5.421875 C 7.570312 -7.421875 5.925781 -9.816406 4.71875 -12.609375 C 3.519531 -15.398438 2.921875 -18.460938 2.921875 -21.796875 C 2.921875 -25.128906 3.476562 -28.28125 4.59375 -31.25 C 5.71875 -34.226562 7.320312 -36.847656 9.40625 -39.109375 C 11.488281 -41.378906 14.007812 -43.1875 16.96875 -44.53125 C 19.925781 -45.875 23.234375 -46.546875 26.890625 -46.546875 C 33.210938 -46.546875 38.535156 -44.550781 42.859375 -40.5625 C 47.484375 -36.300781 49.796875 -30.554688 49.796875 -23.328125 C 49.796875 -16.316406 47.414062 -10.488281 42.65625 -5.84375 C 39.726562 -2.976562 36.238281 -1.007812 32.1875 0.0625 C 30.195312 0.59375 27.863281 0.859375 25.1875 0.859375 C 22.519531 0.859375 19.785156 0.3125 16.984375 -0.78125 C 14.179688 -1.882812 11.738281 -3.429688 9.65625 -5.421875 Z M 12.46875 -22.25 C 12.46875 -20.125 12.820312 -18.164062 13.53125 -16.375 C 14.238281 -14.59375 15.222656 -13.0625 16.484375 -11.78125 C 19.160156 -9.082031 22.609375 -7.734375 26.828125 -7.734375 C 30.835938 -7.734375 34.054688 -9.023438 36.484375 -11.609375 C 38.953125 -14.285156 40.1875 -17.9375 40.1875 -22.5625 C 40.1875 -26.914062 39.007812 -30.546875 36.65625 -33.453125 C 34.113281 -36.566406 30.628906 -38.125 26.203125 -38.125 C 21.921875 -38.125 18.519531 -36.546875 16 -33.390625 C 13.644531 -30.429688 12.46875 -26.71875 12.46875 -22.25 Z M 12.46875 -22.25 "/></g></g></g><g fill="#ffffff" fill-opacity="1"><g transform="translate(101.878758, 156.947901)"><g><path d="M 9.65625 -5.421875 C 7.570312 -7.421875 5.925781 -9.816406 4.71875 -12.609375 C 3.519531 -15.398438 2.921875 -18.460938 2.921875 -21.796875 C 2.921875 -25.128906 3.476562 -28.28125 4.59375 -31.25 C 5.71875 -34.226562 7.320312 -36.847656 9.40625 -39.109375 C 11.488281 -41.378906 14.007812 -43.1875 16.96875 -44.53125 C 19.925781 -45.875 23.234375 -46.546875 26.890625 -46.546875 C 33.210938 -46.546875 38.535156 -44.550781 42.859375 -40.5625 C 47.484375 -36.300781 49.796875 -30.554688 49.796875 -23.328125 C 49.796875 -16.316406 47.414062 -10.488281 42.65625 -5.84375 C 39.726562 -2.976562 36.238281 -1.007812 32.1875 0.0625 C 30.195312 0.59375 27.863281 0.859375 25.1875 0.859375 C 22.519531 0.859375 19.785156 0.3125 16.984375 -0.78125 C 14.179688 -1.882812 11.738281 -3.429688 9.65625 -5.421875 Z M 12.46875 -22.25 C 12.46875 -20.125 12.820312 -18.164062 13.53125 -16.375 C 14.238281 -14.59375 15.222656 -13.0625 16.484375 -11.78125 C 19.160156 -9.082031 22.609375 -7.734375 26.828125 -7.734375 C 30.835938 -7.734375 34.054688 -9.023438 36.484375 -11.609375 C 38.953125 -14.285156 40.1875 -17.9375 40.1875 -22.5625 C 40.1875 -26.914062 39.007812 -30.546875 36.65625 -33.453125 C 34.113281 -36.566406 30.628906 -38.125 26.203125 -38.125 C 21.921875 -38.125 18.519531 -36.546875 16 -33.390625 C 13.644531 -30.429688 12.46875 -26.71875 12.46875 -22.25 Z M 12.46875 -22.25 "/></g></g></g><g fill="#ffffff" fill-opacity="1"><g transform="translate(149.678201, 156.947901)"><g><path d="M 12.609375 0 C 9.242188 0 7.007812 0.0664062 5.90625 0.203125 L 5.90625 -45.890625 C 6.457031 -45.753906 7.597656 -45.6875 9.328125 -45.6875 C 11.054688 -45.6875 13.066406 -45.726562 15.359375 -45.8125 L 15.359375 -8.25 L 22.46875 -8.25 C 24.519531 -8.25 26.164062 -8.316406 27.40625 -8.453125 C 27.25 -3.085938 27.171875 -0.304688 27.171875 -0.109375 L 27.171875 0.234375 C 24.921875 0.078125 21.15625 0 15.875 0 Z M 12.609375 0 "/></g></g></g><g fill="#ffffff" fill-opacity="1"><g transform="translate(174.121218, 156.947901)"><g><path d="M 6.96875 -45.8125 C 9.257812 -45.726562 10.644531 -45.6875 11.125 -45.6875 L 13.609375 -45.6875 C 14.816406 -45.6875 15.785156 -45.773438 16.515625 -45.953125 L 16.484375 0 L 6.96875 0 Z M 6.96875 -45.8125 "/></g></g></g><g fill="#ffffff" fill-opacity="1"><g transform="translate(192.690776, 156.947901)"><g><path d="M 6.21875 0 C 6.351562 -0.78125 6.421875 -1.628906 6.421875 -2.546875 L 6.421875 -45.6875 L 13.296875 -45.6875 L 31.5 -17.03125 L 31.5 -43.34375 C 31.5 -44.601562 31.382812 -45.382812 31.15625 -45.6875 L 40.421875 -45.6875 C 40.304688 -44.769531 40.25 -43.757812 40.25 -42.65625 L 40.25 0 L 33.109375 0 L 15.1875 -27.515625 L 15.1875 0 Z M 6.21875 0 "/></g></g></g><g fill="#ffffff" fill-opacity="1"><g transform="translate(234.445026, 156.947901)"><g><path d="M 43.546875 -27.546875 C 43.117188 -26.765625 42.90625 -24.898438 42.90625 -21.953125 L 42.90625 -11.296875 C 42.90625 -8.066406 41.234375 -5.265625 37.890625 -2.890625 C 34.429688 -0.390625 30.191406 0.859375 25.171875 0.859375 C 18.210938 0.859375 12.660156 -1.328125 8.515625 -5.703125 C 4.503906 -9.867188 2.5 -15.179688 2.5 -21.640625 C 2.5 -28.503906 4.539062 -34.226562 8.625 -38.8125 C 13.175781 -43.96875 19.445312 -46.546875 27.4375 -46.546875 C 32.78125 -46.546875 37.007812 -45.515625 40.125 -43.453125 L 39.5625 -33.3125 L 39.296875 -33.25 C 38.492188 -34.644531 36.910156 -35.789062 34.546875 -36.6875 C 32.304688 -37.53125 29.953125 -37.953125 27.484375 -37.953125 C 25.023438 -37.953125 22.875 -37.5625 21.03125 -36.78125 C 19.1875 -36.007812 17.625 -34.898438 16.34375 -33.453125 C 13.644531 -30.503906 12.296875 -26.597656 12.296875 -21.734375 C 12.296875 -17.503906 13.488281 -14.109375 15.875 -11.546875 C 18.25 -9.003906 21.316406 -7.734375 25.078125 -7.734375 C 29.222656 -7.734375 32.015625 -8.804688 33.453125 -10.953125 C 33.910156 -11.640625 34.140625 -12.421875 34.140625 -13.296875 L 34.140625 -19 L 29.703125 -19 C 27.328125 -19 26.035156 -18.789062 25.828125 -18.375 L 25.71875 -18.40625 L 25.421875 -27.375 C 26.054688 -27.1875 28.65625 -27.09375 33.21875 -27.09375 L 37.265625 -27.09375 C 39.785156 -27.09375 41.847656 -27.265625 43.453125 -27.609375 Z M 43.546875 -27.546875 "/></g></g></g><g fill="#ffffff" fill-opacity="1"><g transform="translate(26.854946, 255.393517)"><g><path d="M 15.1875 0.203125 C 12.988281 0.0664062 10.375 0 7.34375 0 L 6.25 0 L 6.25 -45.859375 C 7.664062 -45.742188 8.675781 -45.6875 9.28125 -45.6875 L 10.6875 -45.6875 C 12.488281 -45.6875 13.988281 -45.773438 15.1875 -45.953125 L 15.1875 -27.65625 L 31.328125 -27.65625 L 31.328125 -45.859375 C 33.222656 -45.742188 35.066406 -45.6875 36.859375 -45.6875 C 38.660156 -45.6875 39.789062 -45.773438 40.25 -45.953125 L 40.25 0.203125 C 39.15625 0.0664062 36.984375 0 33.734375 0 L 31.328125 0 L 31.328125 -19.40625 L 15.1875 -19.40625 Z M 15.1875 0.203125 "/></g></g></g><g fill="#ffffff" fill-opacity="1"><g transform="translate(68.780932, 255.393517)"><g><path d="M 28.890625 -8.25 C 30.304688 -8.25 31.289062 -8.382812 31.84375 -8.65625 L 31.984375 -8.625 L 31.640625 0 L 5.90625 0 L 5.90625 -45.921875 C 6.519531 -45.878906 7.207031 -45.84375 7.96875 -45.8125 L 10.375 -45.75 C 11.976562 -45.707031 13.71875 -45.6875 15.59375 -45.6875 C 20.832031 -45.6875 26.019531 -45.773438 31.15625 -45.953125 C 30.90625 -43.941406 30.78125 -41.253906 30.78125 -37.890625 C 30.78125 -37.515625 30.800781 -37.238281 30.84375 -37.0625 L 30.78125 -36.953125 C 29.582031 -37.296875 27.882812 -37.46875 25.6875 -37.46875 L 14.875 -37.46875 L 14.875 -28.71875 L 23.015625 -28.71875 C 25.535156 -28.71875 27.046875 -28.785156 27.546875 -28.921875 L 27.65625 -20.4375 C 26.550781 -20.550781 25.128906 -20.609375 23.390625 -20.609375 L 14.875 -20.609375 L 14.875 -8.25 Z M 28.890625 -8.25 "/></g></g></g><g fill="#ffffff" fill-opacity="1"><g transform="translate(99.097401, 255.393517)"><g><path d="M 20.671875 -17.75 C 19.984375 -17.707031 19.25 -17.6875 18.46875 -17.6875 C 17.695312 -17.6875 16.546875 -17.742188 15.015625 -17.859375 L 15.015625 0 L 5.90625 0 L 5.90625 -45.921875 C 9.113281 -46.335938 13.050781 -46.546875 17.71875 -46.546875 C 24.082031 -46.546875 28.828125 -45.367188 31.953125 -43.015625 C 35.085938 -40.671875 36.65625 -37.050781 36.65625 -32.15625 C 36.65625 -28.351562 35.222656 -25.097656 32.359375 -22.390625 C 31.421875 -21.523438 30.34375 -20.769531 29.125 -20.125 L 36.140625 -5.359375 C 37.503906 -2.316406 38.554688 -0.507812 39.296875 0.0625 L 39.125 0.234375 C 36.90625 -0.128906 33.410156 -0.113281 28.640625 0.28125 Z M 18.375 -38.4375 C 17.207031 -38.4375 16.085938 -38.378906 15.015625 -38.265625 L 15.015625 -25.140625 C 16.128906 -24.984375 17.441406 -24.90625 18.953125 -24.90625 C 20.472656 -24.90625 21.742188 -25.035156 22.765625 -25.296875 C 23.796875 -25.554688 24.691406 -25.960938 25.453125 -26.515625 C 27.078125 -27.734375 27.890625 -29.554688 27.890625 -31.984375 C 27.890625 -34.410156 27.039062 -36.113281 25.34375 -37.09375 C 23.769531 -37.988281 21.445312 -38.4375 18.375 -38.4375 Z M 18.375 -38.4375 "/></g></g></g><g fill="#ffffff" fill-opacity="1"><g transform="translate(135.149941, 255.393517)"><g><path d="M 9.65625 -5.421875 C 7.570312 -7.421875 5.925781 -9.816406 4.71875 -12.609375 C 3.519531 -15.398438 2.921875 -18.460938 2.921875 -21.796875 C 2.921875 -25.128906 3.476562 -28.28125 4.59375 -31.25 C 5.71875 -34.226562 7.320312 -36.847656 9.40625 -39.109375 C 11.488281 -41.378906 14.007812 -43.1875 16.96875 -44.53125 C 19.925781 -45.875 23.234375 -46.546875 26.890625 -46.546875 C 33.210938 -46.546875 38.535156 -44.550781 42.859375 -40.5625 C 47.484375 -36.300781 49.796875 -30.554688 49.796875 -23.328125 C 49.796875 -16.316406 47.414062 -10.488281 42.65625 -5.84375 C 39.726562 -2.976562 36.238281 -1.007812 32.1875 0.0625 C 30.195312 0.59375 27.863281 0.859375 25.1875 0.859375 C 22.519531 0.859375 19.785156 0.3125 16.984375 -0.78125 C 14.179688 -1.882812 11.738281 -3.429688 9.65625 -5.421875 Z M 12.46875 -22.25 C 12.46875 -20.125 12.820312 -18.164062 13.53125 -16.375 C 14.238281 -14.59375 15.222656 -13.0625 16.484375 -11.78125 C 19.160156 -9.082031 22.609375 -7.734375 26.828125 -7.734375 C 30.835938 -7.734375 34.054688 -9.023438 36.484375 -11.609375 C 38.953125 -14.285156 40.1875 -17.9375 40.1875 -22.5625 C 40.1875 -26.914062 39.007812 -30.546875 36.65625 -33.453125 C 34.113281 -36.566406 30.628906 -38.125 26.203125 -38.125 C 21.921875 -38.125 18.519531 -36.546875 16 -33.390625 C 13.644531 -30.429688 12.46875 -26.71875 12.46875 -22.25 Z M 12.46875 -22.25 "/></g></g></g><g fill="#ffffff" fill-opacity="1"><g transform="translate(182.949384, 255.393517)"><g><path d="M 28.890625 -8.25 C 30.304688 -8.25 31.289062 -8.382812 31.84375 -8.65625 L 31.984375 -8.625 L 31.640625 0 L 5.90625 0 L 5.90625 -45.921875 C 6.519531 -45.878906 7.207031 -45.84375 7.96875 -45.8125 L 10.375 -45.75 C 11.976562 -45.707031 13.71875 -45.6875 15.59375 -45.6875 C 20.832031 -45.6875 26.019531 -45.773438 31.15625 -45.953125 C 30.90625 -43.941406 30.78125 -41.253906 30.78125 -37.890625 C 30.78125 -37.515625 30.800781 -37.238281 30.84375 -37.0625 L 30.78125 -36.953125 C 29.582031 -37.296875 27.882812 -37.46875 25.6875 -37.46875 L 14.875 -37.46875 L 14.875 -28.71875 L 23.015625 -28.71875 C 25.535156 -28.71875 27.046875 -28.785156 27.546875 -28.921875 L 27.65625 -20.4375 C 26.550781 -20.550781 25.128906 -20.609375 23.390625 -20.609375 L 14.875 -20.609375 L 14.875 -8.25 Z M 28.890625 -8.25 "/></g></g></g><g fill="#ffffff" fill-opacity="1"><g transform="translate(213.26586, 255.393517)"><g><path d="M 33.484375 -43.140625 L 32.84375 -33.046875 L 32.59375 -32.96875 C 30.894531 -35.507812 28.007812 -37.160156 23.9375 -37.921875 C 22.65625 -38.171875 21.425781 -38.296875 20.25 -38.296875 C 19.070312 -38.296875 18.0625 -38.191406 17.21875 -37.984375 C 16.382812 -37.773438 15.671875 -37.476562 15.078125 -37.09375 C 13.816406 -36.269531 13.1875 -35.191406 13.1875 -33.859375 C 13.1875 -32.117188 13.738281 -30.816406 14.84375 -29.953125 C 16.21875 -28.898438 18.492188 -28.160156 21.671875 -27.734375 C 24.859375 -27.304688 27.410156 -26.726562 29.328125 -26 C 31.253906 -25.269531 32.835938 -24.34375 34.078125 -23.21875 C 36.410156 -21.113281 37.578125 -18.132812 37.578125 -14.28125 C 37.578125 -9.25 35.675781 -5.367188 31.875 -2.640625 C 28.625 -0.304688 24.523438 0.859375 19.578125 0.859375 C 15.597656 0.859375 11.660156 0.101562 7.765625 -1.40625 C 6.484375 -1.90625 5.359375 -2.488281 4.390625 -3.15625 L 4.78125 -14.625 L 4.90625 -14.734375 C 7.75 -9.835938 12.410156 -7.390625 18.890625 -7.390625 C 23.492188 -7.390625 26.539062 -8.5 28.03125 -10.71875 C 28.53125 -11.46875 28.78125 -12.304688 28.78125 -13.234375 C 28.78125 -14.160156 28.628906 -14.925781 28.328125 -15.53125 C 28.035156 -16.144531 27.546875 -16.671875 26.859375 -17.109375 C 25.535156 -17.972656 23.300781 -18.550781 20.15625 -18.84375 C 17.019531 -19.144531 14.457031 -19.707031 12.46875 -20.53125 C 10.476562 -21.363281 8.882812 -22.382812 7.6875 -23.59375 C 5.539062 -25.789062 4.46875 -28.859375 4.46875 -32.796875 C 4.46875 -36.878906 5.898438 -40.175781 8.765625 -42.6875 C 11.671875 -45.257812 15.585938 -46.546875 20.515625 -46.546875 C 25.453125 -46.546875 29.773438 -45.410156 33.484375 -43.140625 Z M 33.484375 -43.140625 "/></g></g></g><g fill="#ffffff" fill-opacity="1"><g transform="translate(249.322943, 255.393517)"><g/></g></g></svg>